<svg width="12" height="12" viewBox="0 0 12 12" fill="none" xmlns="http://www.w3.org/2000/svg">
<path d="M4.07908 10.4958L9.5 5.07486L6.92517 2.50003L1.50425 7.92095C1.42962 7.99567 1.37661 8.0892 1.35083 8.19161L0.75 11.25L3.80783 10.6492C3.9105 10.6235 4.00442 10.5704 4.07908 10.4958ZM11.25 3.32486C11.4687 3.10608 11.5916 2.80939 11.5916 2.50003C11.5916 2.19067 11.4687 1.89398 11.25 1.6752L10.3248 0.750031C10.1061 0.531315 9.80936 0.408447 9.5 0.408447C9.19064 0.408447 8.89395 0.531315 8.67517 0.750031L7.75 1.6752L10.3248 4.25003L11.25 3.32486Z" fill="white"/>
</svg>
