<svg width="13" height="12" viewBox="0 0 13 12" fill="none" xmlns="http://www.w3.org/2000/svg">
<path d="M5.79998 9.16004L4.56998 10.38C4.19568 10.7495 3.69092 10.9567 3.16498 10.9567C2.63905 10.9567 2.13428 10.7495 1.75998 10.38C1.57751 10.198 1.43274 9.98171 1.33396 9.74362C1.23518 9.50554 1.18434 9.2503 1.18434 8.99254C1.18434 8.73477 1.23518 8.47954 1.33396 8.24145C1.43274 8.00336 1.57751 7.7871 1.75998 7.60504L4.10498 5.28004C4.47928 4.91057 4.98405 4.7034 5.50998 4.7034C6.03592 4.7034 6.54068 4.91057 6.91498 5.28004C7.15319 5.51669 7.32553 5.81139 7.41498 6.13504C7.46418 6.09445 7.50939 6.04924 7.54998 6.00004L8.19498 5.36004C8.05056 5.05943 7.85613 4.78553 7.61998 4.55004C7.05832 3.99432 6.3001 3.68262 5.50998 3.68262C4.71986 3.68262 3.96165 3.99432 3.39998 4.55004L1.04998 6.89504C0.773181 7.16972 0.553486 7.49648 0.403563 7.85647C0.253639 8.21647 0.176453 8.60257 0.176453 8.99254C0.176453 9.3825 0.253639 9.76861 0.403563 10.1286C0.553486 10.4886 0.773181 10.8154 1.04998 11.09C1.61165 11.6458 2.36986 11.9575 3.15998 11.9575C3.9501 11.9575 4.70832 11.6458 5.26998 11.09L7.09498 9.28004H6.84498C6.49289 9.28621 6.14151 9.24586 5.79998 9.16004Z" fill="#929493"/>
<path d="M11.305 0.9099C10.7434 0.354184 9.98515 0.0424805 9.19503 0.0424805C8.40491 0.0424805 7.64669 0.354184 7.08503 0.9099L5.26003 2.7199H5.50503C5.85969 2.71981 6.21278 2.76689 6.55503 2.8599L7.78503 1.6399C8.15933 1.27043 8.66409 1.06327 9.19003 1.06327C9.71596 1.06327 10.2207 1.27043 10.595 1.6399C10.7775 1.82196 10.9223 2.03823 11.0211 2.27631C11.1198 2.5144 11.1707 2.76964 11.1707 3.0274C11.1707 3.28516 11.1198 3.5404 11.0211 3.77849C10.9223 4.01657 10.7775 4.23284 10.595 4.4149L8.25003 6.7399C7.87573 7.10937 7.37096 7.31653 6.84503 7.31653C6.3191 7.31653 5.81433 7.10937 5.44003 6.7399C5.20182 6.50325 5.02948 6.20854 4.94003 5.8849C4.88998 5.91892 4.84312 5.95741 4.80003 5.9999L4.15503 6.6399C4.29945 6.94051 4.49388 7.21441 4.73003 7.4499C5.29169 8.00562 6.04991 8.31732 6.84003 8.31732C7.63015 8.31732 8.38837 8.00562 8.95003 7.4499L11.295 5.1249C11.5712 4.84988 11.7904 4.52301 11.9399 4.16306C12.0895 3.80311 12.1665 3.41718 12.1665 3.0274C12.1665 2.63762 12.0895 2.25169 11.9399 1.89174C11.7904 1.53179 11.5712 1.20492 11.295 0.9299L11.305 0.9099Z" fill="#929493"/>
</svg>
