<svg width="15" height="19" viewBox="0 0 15 19" fill="none" xmlns="http://www.w3.org/2000/svg">
<path d="M7.50002 18.1249C6.28959 17.0925 5.16762 15.9606 4.14585 14.7411C2.61252 12.9097 0.791688 10.1823 0.791688 7.58328C0.791023 6.25595 1.18413 4.95826 1.92127 3.85443C2.6584 2.7506 3.70643 1.89026 4.93271 1.38229C6.15899 0.87431 7.5084 0.741536 8.81017 1.00077C10.1119 1.26 11.3076 1.89958 12.2457 2.83857C12.8703 3.46039 13.3654 4.19992 13.7022 5.01435C14.0391 5.82877 14.2112 6.70193 14.2084 7.58328C14.2084 10.1823 12.3875 12.9097 10.8542 14.7411C9.83242 15.9606 8.71045 17.0925 7.50002 18.1249ZM7.50002 4.70828C6.73752 4.70828 6.00626 5.01118 5.46709 5.55035C4.92792 6.08951 4.62502 6.82078 4.62502 7.58328C4.62502 8.34578 4.92792 9.07704 5.46709 9.61621C6.00626 10.1554 6.73752 10.4583 7.50002 10.4583C8.26252 10.4583 8.99379 10.1554 9.53295 9.61621C10.0721 9.07704 10.375 8.34578 10.375 7.58328C10.375 6.82078 10.0721 6.08951 9.53295 5.55035C8.99379 5.01118 8.26252 4.70828 7.50002 4.70828Z" fill="#D7B56D"/>
</svg>
